<svg width="100" height="100" xmlns="http://www.w3.org/2000/svg"><g transform="translate(-9.216 -15.2) scale(1.152)"><ellipse cx="51.843" cy="56.202" rx="41.513" ry="40.723" fill="#fff"/><path d="M55.743 47.917l-3.15-19.444h-2.316l-3.215 19.444c-2.586 1.506-4.34 4.27-4.34 7.478 0 4.792 3.89 8.68 8.68 8.68s8.681-3.888 8.681-8.68c0-3.207-1.753-5.972-4.34-7.478zm-4.34-34.722C27.436 13.195 8 32.626 8 56.598c0 23.971 19.436 43.403 43.403 43.403S94.806 80.57 94.806 56.598c0-23.971-19.436-43.403-43.403-43.403zm0 78.125c-19.145 0-34.722-15.577-34.722-34.722 0-19.145 15.577-34.722 34.722-34.722 19.145 0 34.722 15.577 34.722 34.722 0 19.145-15.577 34.722-34.722 34.722z"/></g></svg>
