<svg xmlns="http://www.w3.org/2000/svg" width="100" height="100"><path fill="#fff" d="M0 0h100v100H0z"/><g transform="matrix(.96768 0 0 .96768 .259 -4.768)"><ellipse ry="40.723" rx="41.513" cy="56.202" cx="51.843" fill="#fff"/><path d="M55.743 47.917l-3.15-19.445h-2.316l-3.214 19.445c-2.587 1.506-4.34 4.27-4.34 7.478 0 4.792 3.888 8.68 8.68 8.68 4.791 0 8.68-3.888 8.68-8.68 0-3.208-1.753-5.972-4.34-7.478zm-4.34-34.723C27.436 13.194 8 32.626 8 56.597 8 80.57 27.436 100 51.403 100s43.403-19.431 43.403-43.403c0-23.971-19.436-43.403-43.403-43.403zm0 78.125c-19.145 0-34.722-15.577-34.722-34.722 0-19.145 15.577-34.722 34.722-34.722 19.145 0 34.722 15.577 34.722 34.722 0 19.145-15.577 34.722-34.722 34.722z"/></g></svg>
